/* XPM */
static char *tile_0028_resized[] = {
/* columns rows colors chars-per-pixel */
"32 32 146 2 ",
"   c None",
".  c #7D4A3F",
"X  c #663646",
"o  c #6C3A41",
"O  c #6C3A42",
"+  c #6C3B43",
"@  c #6E3C42",
"#  c #6E3D43",
"$  c #6F3E43",
"%  c #693945",
"&  c #6A3A44",
"*  c #6C3B44",
"=  c #6D3C44",
"-  c #703F43",
";  c #714042",
":  c #714043",
">  c #764441",
",  c #714044",
"<  c #714144",
"1  c #7A4740",
"2  c #824E3D",
"3  c #84513D",
"4  c #86523C",
"5  c #87533C",
"6  c #8C583A",
"7  c #956037",
"8  c #976237",
"9  c #9B6536",
"0  c #AD752E",
"q  c #AE762E",
"w  c #AE772E",
"e  c #AE762F",
"r  c #B0782E",
"t  c #B0782F",
"y  c #B37A2E",
"u  c #B87F2D",
"i  c #AB7331",
"p  c #A87132",
"a  c #AD7530",
"s  c #AE7B3D",
"d  c #8E6250",
"f  c #C67B66",
"g  c #C77C64",
"h  c #C87D63",
"j  c #C97E62",
"k  c #EEAD1B",
"l  c #E9AA1F",
"z  c #EFAF1C",
"x  c #EEAF1D",
"c  c #EFAF1D",
"v  c #EDAD1F",
"b  c #EFB01C",
"n  c #F2B01B",
"m  c #F3B31B",
"M  c #F4B318",
"N  c #F5B518",
"B  c #F5B519",
"V  c #F5B619",
"C  c #F6B618",
"Z  c #F6B619",
"A  c #F4B41A",
"S  c #F5B51A",
"D  c #F4B41B",
"F  c #F5B51B",
"G  c #F6B51B",
"H  c #F6B61A",
"J  c #F7B61A",
"K  c #F7B71A",
"L  c #F0B11C",
"P  c #F1B11C",
"I  c #F2B21C",
"U  c #F3B31C",
"Y  c #F3B31D",
"T  c #F0B01E",
"R  c #F4B31C",
"E  c #F8B71A",
"W  c #F9B918",
"Q  c #F8B819",
"!  c #F9B919",
"~  c #F8B81A",
"^  c #C68C29",
"/  c #C88D28",
"(  c #CF9326",
")  c #D09426",
"_  c #D19526",
"`  c #D69A24",
"'  c #D89B23",
"]  c #DE993F",
"[  c #E19C3B",
"{  c #E39D3B",
"}  c #E09B3C",
"|  c #E1A321",
" . c #EBAB22",
".. c #ECAB22",
"X. c #ECAC20",
"o. c #ECAD20",
"O. c #ECAC21",
"+. c #EEAD23",
"@. c #EFAE23",
"#. c #ECA925",
"$. c #EDAB26",
"%. c #EEAC25",
"&. c #EDAC26",
"*. c #E8A42B",
"=. c #E8A52B",
"-. c #ECA92D",
";. c #F1AE22",
":. c #F1B020",
">. c #F4B320",
",. c #E6A332",
"<. c #E6A137",
"1. c #EDA931",
"2. c #F1BC37",
"3. c #F7C136",
"4. c #F7C137",
"5. c #F8C235",
"6. c #FBC635",
"7. c #AF885F",
"8. c #B18858",
"9. c #B28B60",
"0. c #B48E61",
"q. c #B48E62",
"w. c #D68E4C",
"e. c #D58D4E",
"r. c #D48C4F",
"t. c #DB9443",
"y. c #DE9744",
"u. c #DE9745",
"i. c #DF9843",
"p. c #D7904A",
"a. c #CB815E",
"s. c #CA805F",
"d. c #CC835C",
"f. c #D08755",
"g. c #D18853",
"h. c #E09A40",
"j. c #F7D66F",
"k. c #FDDD70",
"l. c #FCDC71",
"z. c #F3D77C",
"x. c #F8DD7F",
"c. c #FFE172",
"v. c #FCE280",
"b. c #FCE484",
"n. c #FFEB86",
"m. c #FFF088",
/* pixels */
"    $ $ $ $ $ $ $ $ $ $ $ $ $ $ $ $ $ $ $ $ $ $ $ $ $ $ $ $     ",
"  $ $ @ O o O O O O O O O O O O O O O O O O O O O O o O @ $ $   ",
"$ $ $ - , < < < < < < < < < < < < < < < < < < < < < < , - $ $ $ ",
"$ @ - d 7.0.9.9.9.9.9.9.9.9.9.9.9.9.9.9.9.9.9.9.9.9.0.7.d - @ $ ",
"$ O , 7.z.v.x.x.x.x.x.x.x.x.x.x.x.x.x.x.x.x.x.x.x.x.v.z.7., O $ ",
"$ o < q.b.m.n.n.n.n.n.n.n.n.n.n.n.n.n.n.n.n.n.n.n.n.m.b.q.< o $ ",
"$ O , 8.j.c.k.k.k.l.l.l.l.l.l.l.l.l.l.l.l.l.l.k.k.k.c.j.8., O $ ",
"$ + : s 2.6.5.5.5.3.4.4.4.4.4.4.4.4.4.4.4.4.3.5.5.5.6.2.s : + $ ",
"$ * ; 0 k ;.=.*.#.n M M M M M M M M M M M M n #.*.=.;.k 0 ; * $ ",
"$ * ; q X.{ g.f.t.+.N A A A A A A A A A A N +.t.f.g.{ X.q ; * $ ",
"$ * ; w  .u.h f r.$.C D D D J ~ ~ J D D D C $.r.f h u. .w ; * $ ",
"$ * ; w O.h.d.a.p.%.V D D m L c c L m D D V %.p.a.d.h.O.w ; * $ ",
"$ * ; e v -.[ } ,.:.S D ! L ^ i i ^ L ! D S :.,.} [ -.v e ; * $ ",
"$ * ; a c K U U R D D m L ' 8 # # 8 ' L m D D R U U K c a ; * $ ",
"$ * ; a z Q B B S D J L ^ 8 1 & & 1 8 ^ L J D S B B Q z a ; * $ ",
"$ * ; a c E D D D D ~ c i # & $ $ & # i c ~ D D D D E c a ; * $ ",
"$ * ; a c E D D D D ~ c i # & $ $ & # i c ~ D D D D E c a ; * $ ",
"$ * ; a c E D D D D J P / 9 . # # . 9 / P J D D D D E c a ; * $ ",
"$ * ; a c E D D D D F m b ` 7 * * 7 ` b m F D D D D E c a ; * $ ",
"$ * ; a c E D D D D G I ' y 5 = = 5 y ' I G D D D D E c a ; * $ ",
"$ * ; a c E D D D D E z t > # $ $ # > t z E D D D D E c a ; * $ ",
"$ * ; a z W V C B D ~ x p % X & & X % p x ~ D B C V W z a ; * $ ",
"$ * ; a x >.&.&.@.Y K b u 4 2 3 3 2 4 u b K Y @.&.&.>.x a ; * $ ",
"$ * ; e o.<.w.e.] @.Z m | _ ( ) ) ( _ | m Z @.] e.w.<.o.e ; * $ ",
"$ * ; w  .y.j g e.&.V D H E E E E E E H D V &.e.g j y. .w ; * $ ",
"$ * ; w ..i.s.j w.&.V D D F F F F F F D D V &.w.j s.i...w ; * $ ",
"$ * ; r T 1.i.y.<.>.W E E E E E E E E E E W >.<.y.i.1.T r ; * $ ",
"$ * ; i l T .. .o.x z c c c c c c c c c c z x o. ...T l i ; * $ ",
"$ # - 6 i r w w e a a a a a a a a a a a a a a e w w r i 6 - # $ ",
"$ $ $ - ; ; ; ; ; ; ; ; ; ; ; ; ; ; ; ; ; ; ; ; ; ; ; ; - $ $ $ ",
"  $ $ # * * * * * * * * * * * * * * * * * * * * * * * * # $ $   ",
"    $ $ $ $ $ $ $ $ $ $ $ $ $ $ $ $ $ $ $ $ $ $ $ $ $ $ $ $     "
};
