/* XPM */
static char *tile_0122_resized[] = {
/* columns rows colors chars-per-pixel */
"32 32 77 1 ",
"  c #A75D57",
". c #A85E58",
"X c #AA6058",
"o c #AB6158",
"O c #AC6258",
"+ c #AD6358",
"@ c #AE6459",
"# c #AF6559",
"$ c #B06659",
"% c #B26859",
"& c #B3695A",
"* c #B56B5A",
"= c #B66C5A",
"- c #B76D5A",
"; c #B86E5A",
": c #B96F5B",
"> c #BA705B",
", c #BB715B",
"< c #BC725B",
"1 c #BD735B",
"2 c #BE745B",
"3 c #BE745C",
"4 c #BF755C",
"5 c #C0765C",
"6 c #C1775C",
"7 c #C2785C",
"8 c #C3795C",
"9 c #C3795D",
"0 c #C47A5D",
"q c #C57B5D",
"w c #C67C5D",
"e c #C77D5D",
"r c #C87E5D",
"t c #C97F5E",
"y c #CA7F5E",
"u c #CA805E",
"i c #CB815E",
"p c #CC825E",
"a c #CC835E",
"s c #CD835E",
"d c #CE845E",
"f c #CE845F",
"g c #CF855F",
"h c #D0865F",
"j c #D0875F",
"k c #D1875F",
"l c #D1885F",
"z c #D2885F",
"x c #D38960",
"c c #D38A60",
"v c #D58B60",
"b c #D68C60",
"n c #D68D60",
"m c #D78D60",
"M c #D78E60",
"N c #D88E60",
"B c #D99061",
"V c #DA9161",
"C c #DB9261",
"Z c #DD9461",
"A c #DE9562",
"S c #DF9662",
"D c #E09762",
"F c #E39A63",
"G c #E49B63",
"H c #E49C63",
"J c #E59D63",
"K c #E69D63",
"L c #E89F64",
"P c #E8A064",
"I c #EBA264",
"U c #EEA665",
"Y c #EFA765",
"T c #F3AB66",
"R c #F4AC66",
"E c #F7AF67",
"W c #F9B167",
/* pixels */
"iiiiiiiiiiiiiiiiiiiiiiiuuiiiiiii",
"iipiiiiiiiiiiiiiiiiiiusbbsuiiiii",
"iiiiiiiiiiiiiiiiiiiiiukKKkuiiiii",
"iq17uiiiiiiiiiiiiiiiiugZZguiiiii",
"p6%,upiiiiiiiiiiiiiiiiiaaiiiiiii",
"iw49uiiiiiiiiiiiiiiiiiiuuiiiiiii",
"iiiiiiiiiiiiiiiiiiiiiiiiiiiiiiii",
"iiiiiiiiiiiiiiiippiiiiiiiiiiiiii",
"iiiippiiiiiiiiit0quiiiiiiiiiiiii",
"iiiiiiiiiiiiiipq*;rpiiiiiiiiiiii",
"iiiq415riiiiipae,1tpiiiiiiiiiiii",
"ipu1#o%8piiiuuuytyiiiiiiiiiiiiii",
"ipu,X @7piiu7>:3raiuuuiiiiiiiiii",
"ipi3$+&9pipu>OX%0pisgsiiiiiiiiii",
"iiiw657riipu:X $0ipBHMiuiiiiiiii",
"iiiippiiiipu2%$-wipCPBiuiiiiiiii",
"iiiiiiiiiipie00wuiihcgiiiiiiiiii",
"iiiiiiiir60uppppiiiuuuuuuiiiiiii",
"iiiiiiip8&:tpiiiiiiiiippiiiiiiii",
"iiiiiiipw<5iapiiiiiuanASBfuiiiii",
"iiiiiiiiiuttttuiiiiufFTRLluiiiii",
"iiiiiiiipp0:=>qiiiiyfJEWIzyiiiii",
"iiiiiiiipi3+.@5piiiudDUYGjuiiiii",
"iiiiiiiipi2O +5piipipznmxsiiiiii",
"iiiiiiiiii7*%=9pir8wuiuuuiiiiuii",
"iiiiiiiiiitwwwyip6&<upiiiiiiiiii",
"iiiiiiiiiiipapiii0:4upiiiiupvVki",
"iiiiiiiiiiiiiiiiiutuiiiiiiuaDINu",
"iiiiiiiiiiiiiiiiiippiiiiiiupmZzu",
"iiiiiiiiiiiiiiiiiiiiiiiiiiiiipii",
"iiiiiiiiiiiiiiiiiiiiiiiiiiiiuuii",
"iiiiiiiiiiiiiiiiiiiiiiiiiiiiiiii"
};
