/* XPM */
static char *tile_0027_resized[] = {
/* columns rows colors chars-per-pixel */
"32 32 152 2 ",
"   c None",
".  c #7C493F",
"X  c #7C4A3E",
"o  c #7C4A3F",
"O  c #7D4B3F",
"+  c #7E4B3F",
"@  c #7E4C3E",
"#  c #7F4C3F",
"$  c #663646",
"%  c #6C3B43",
"&  c #6D3C42",
"*  c #6D3D42",
"=  c #6C3C43",
"-  c #6D3C43",
";  c #6D3D43",
":  c #6E3D43",
">  c #6E3E43",
",  c #6F3E43",
"<  c #683845",
"1  c #693845",
"2  c #693945",
"3  c #6A3A44",
"4  c #6B3A44",
"5  c #6B3B44",
"6  c #6C3B44",
"7  c #6C3C44",
"8  c #6D3C44",
"9  c #6D3D44",
"0  c #703E43",
"q  c #703F43",
"w  c #713F43",
"e  c #714042",
"r  c #714043",
"t  c #764441",
"y  c #774346",
"u  c #7A4648",
"i  c #804D3E",
"p  c #8A563B",
"a  c #8D583A",
"s  c #915C39",
"d  c #925D39",
"f  c #935D39",
"g  c #935E38",
"h  c #955F38",
"j  c #956037",
"k  c #996336",
"l  c #986337",
"z  c #9A6437",
"x  c #AE762F",
"c  c #B0782F",
"v  c #A36C33",
"b  c #A46D33",
"n  c #A56E33",
"m  c #A26B34",
"M  c #A66D3C",
"N  c #AA7231",
"B  c #AC7333",
"V  c #AD7530",
"C  c #AC7431",
"Z  c #AE7630",
"A  c #AC7432",
"S  c #854E4A",
"D  c #8E5743",
"F  c #8F5940",
"G  c #87504A",
"H  c #88504C",
"J  c #945B44",
"K  c #925750",
"L  c #9C604C",
"P  c #A06543",
"I  c #A26742",
"U  c #A26745",
"Y  c #A46749",
"T  c #B47156",
"R  c #BC7755",
"E  c #BA812B",
"W  c #E6A81E",
"Q  c #E6A81F",
"!  c #E7A81F",
"~  c #E9AA1E",
"^  c #EAAB1E",
"/  c #EBAC1E",
"(  c #ECAD1C",
")  c #EEAF1D",
"_  c #EFAF1D",
"`  c #EDAD1F",
"'  c #EFB01C",
"]  c #F0B11B",
"[  c #F1B11B",
"{  c #F1B21B",
"}  c #F3B31B",
"|  c #F4B519",
" . c #F6B619",
".. c #F7B719",
"X. c #F4B41B",
"o. c #F7B61A",
"O. c #F7B71A",
"+. c #F0B11C",
"@. c #F1B11C",
"#. c #F1B11E",
"$. c #F7B61C",
"%. c #F7B61D",
"&. c #F8B71B",
"*. c #FAB919",
"=. c #FABA18",
"-. c #FBBA18",
";. c #F8B81A",
":. c #FCBB18",
">. c #FDBC18",
",. c #C0862B",
"<. c #C48929",
"1. c #C78C28",
"2. c #C78C29",
"3. c #C88D28",
"4. c #C88D29",
"5. c #C98E28",
"6. c #CA8F28",
"7. c #CC9127",
"8. c #D69A24",
"9. c #DA9D23",
"0. c #DD9F24",
"q. c #D5962D",
"w. c #D39239",
"e. c #E19E34",
"r. c #DFA121",
"t. c #DFA220",
"y. c #DFA221",
"u. c #DEA122",
"i. c #E0A220",
"p. c #E3A424",
"a. c #EBAB20",
"s. c #ECAC21",
"d. c #F1AE2B",
"f. c #E4A133",
"g. c #E5A233",
"h. c #E6A233",
"j. c #E9A532",
"k. c #EFAA30",
"l. c #FFC015",
"z. c #CF8C40",
"x. c #D38E43",
"c. c #D89341",
"v. c #DC9641",
"b. c #DD9841",
"n. c #CC8555",
"m. c #CD8555",
"M. c #D08855",
"N. c #D38956",
"B. c #D38A56",
"V. c #E09941",
"C. c #E09A40",
"Z. c #E09A41",
/* pixels */
"                                                                ",
"                                                                ",
"                                                                ",
"                                                                ",
"                                                                ",
"    , , , , , , , , , , , , ,                                   ",
"    , , > : : : : : : : : > , ,                                 ",
", , , : & % 5 5 5 5 5 5 % & > , ,                               ",
", > , u G F g g g g g f D S y > , ,                             ",
", * q K R w.r.t.r.r.i.0.z.T H * : ,                             ",
", = w U v.d.*.:.>.>.:.&.k.x.J - : ,                             ",
", 6 e B s.$.} +.) _ @.X.$.p.z 8 ; , , , , , , , , , , , , ,     ",
", 6 e x ] -.~ ,.N C 5.' :.W k < 1 3 3 3 3 3 3 3 3 3 3 4 8 , , , ",
", 6 e V _ >.y.h 5 0 n / >.! n . o + + + + + + + + + @ O t , > , ",
", 6 e V _ >.u.s $ 3 m ^ *.' 8.2.2.3.3.3.3.3.3.3.3.3.6.<.l w 8 , ",
", 6 e V _ >.r.g 2 ; b ^ ;.X.o.;.;.;.;.O.............-.{ Z e 6 , ",
", 6 e V _ >.r.g 2 ; b ^ ;.X.o.;.;.;.;.O. . . . . . .=.[ Z e 6 , ",
", 6 e V _ >.u.s $ 3 m ^ *.' 8.2.2.1.4.q.f.h.g.g.g.g.j.e.M r = , ",
", 6 e V _ >.y.h 5 0 n / >.! n . o X # Y m.N.M.M.M.M.B.n.L w & , ",
", 6 e x ] -.~ ,.N C 5.' :.W k < 1 < 6 P c.Z.b.C.C.b.V.c.I w = , ",
", 6 e B s.$.} +.) _ @.X.$.p.z 8 ; 6 e A ` %.#.a.a.#.%.` A e 6 , ",
", = w U v.d.*.:.>.>.:.&.k.x.J - : 6 e c | l.( E E ( l.| c e 6 , ",
", * q K R w.r.t.r.r.i.0.z.T H * : 7 r v 9.Q 7.p p 7.Q 9.v r 7 , ",
", > , u G F g g g g g f D S y > , : 0 i d j a t t a j d i 0 : , ",
", , , : & % 5 5 5 5 5 5 % & > , , , , 9 6 5 6 : : 6 5 6 9 , , , ",
"    , , > : : : : : : : : > , ,     , > : : : , , : : : > ,     ",
"    , , , , , , , , , , , , ,       , , , , , , , , , , , ,     ",
"                                                                ",
"                                                                ",
"                                                                ",
"                                                                ",
"                                                                "
};
