/* XPM */
static char *tile_0051_resized[] = {
/* columns rows colors chars-per-pixel */
"32 32 108 2 ",
"   c None",
".  c #693A41",
"X  c #6A3B41",
"o  c #6B3B42",
"O  c #6C3B42",
"+  c #6C3C42",
"@  c #6D3C42",
"#  c #6D3D43",
"$  c #6E3D43",
"%  c #6E3E43",
"&  c #6F3E43",
"*  c #703E43",
"=  c #703F43",
"-  c #713F43",
";  c #714044",
":  c #724044",
">  c #734144",
",  c #744145",
"<  c #784346",
"1  c #784546",
"2  c #794646",
"3  c #7C4747",
"4  c #7E4947",
"5  c #804C47",
"6  c #864F4A",
"7  c #87504A",
"8  c #88504A",
"9  c #89514B",
"0  c #8D574B",
"q  c #8D514D",
"w  c #8D534C",
"e  c #8F544D",
"r  c #91534F",
"t  c #925B4C",
"y  c #975B4F",
"u  c #935D4C",
"i  c #945C4D",
"p  c #955E4D",
"a  c #995D4F",
"s  c #9B5A52",
"d  c #9A5D50",
"f  c #9A5E50",
"g  c #9C5C51",
"h  c #9D5F51",
"j  c #A05D53",
"k  c #A06251",
"l  c #A16252",
"z  c #A46353",
"x  c #A36751",
"c  c #A46154",
"v  c #A76255",
"b  c #A96754",
"n  c #A36951",
"m  c #AC6B55",
"M  c #AD6B55",
"N  c #AE6B56",
"B  c #B26F57",
"V  c #B06759",
"C  c #B16859",
"Z  c #B26859",
"A  c #B26959",
"S  c #B3695A",
"D  c #B4695A",
"F  c #B46A5A",
"G  c #B56A5A",
"H  c #AC7053",
"J  c #B37057",
"K  c #B07454",
"L  c #BC765A",
"P  c #BD765A",
"I  c #BD775A",
"U  c #BE775A",
"Y  c #C1795B",
"T  c #C2795C",
"R  c #C37A5C",
"E  c #C47B5D",
"W  c #C57B5D",
"Q  c #C67C5D",
"!  c #C77C5D",
"~  c #C67D5D",
"^  c #C77D5D",
"/  c #C77E5D",
"(  c #C87F5D",
")  c #C87D5E",
"_  c #CA805E",
"`  c #CB815E",
"'  c #CC815E",
"]  c #CC825E",
"[  c #CD825E",
"{  c #CD835E",
"}  c #CD835F",
"|  c #CE835F",
" . c #CE845F",
".. c #CF845F",
"X. c #CD8C5C",
"o. c #D0855F",
"O. c #D18A5F",
"+. c #DA975F",
"@. c #D18560",
"#. c #DA9260",
"$. c #DE9960",
"%. c #E49A63",
"&. c #E49F62",
"*. c #E6A162",
"=. c #EDA664",
"-. c #F4AD66",
";. c #FBB168",
":. c #FFB96A",
/* pixels */
"                                                                ",
"                                                                ",
"                                                                ",
"                                                                ",
"                                                                ",
"    & & & & & &                                 & & & & & &     ",
"    & % $ $ % & &                             & & % $ $ % &     ",
"& & & # O o O $ & &                         & & $ O o O # & & & ",
"& $ * 5 t p 0 2 $ & &                     & & $ 2 0 p t 5 * $ & ",
"& + - n +.*.X.0 O % & & & & & & & & & & & & % O 0 X.*.+.n - + & ",
"& O ; K -.:.&.u . O + + + + + + + + + + + + O . u &.:.-.K ; O & ",
"& + ; H =.;.$.i $ : > > > > > > > > > > > > : $ i $.;.=.H ; + & ",
"& + - x #.%.O.z r h l k k k k k k k k k k l h r z O.%.#.x - + & ",
"& @ = f ( o.Q A Z E ` _ _ _ _ _ _ _ _ _ _ ` E Z A Q o.( f = @ & ",
"& @ = a ~ | W D F )  .} } } } } } } } } }  .) F D W | ~ a = @ & ",
"& @ = d / ..Q S D ! } ] ] ] ] ] ] ] ] ] ] } ! D S Q ../ d = @ & ",
"& @ = d / ..Q D F ^ | [ [ [ [ [ [ [ [ [ [ | ^ F D Q ../ d = @ & ",
"& @ = d / o.R c s b M m m m m m m m m m m M b s c R o./ d = @ & ",
"& @ = d / @.I w , 1 2 2 2 2 2 2 2 2 2 2 2 2 1 , w I @./ d = @ & ",
"& @ = d / @.L 6 X o + + + + + + + + + + + + o X 6 L @./ d = @ & ",
"& @ = d / @.P 8 + % & & & & & & & & & & & & % + 8 P @./ d = @ & ",
"& @ = d / @.L 6 X o + + + + + + + + + + + + o X 6 L @./ d = @ & ",
"& @ = d / @.U e < 3 4 4 4 4 4 4 4 4 4 4 4 4 3 < e U @./ d = @ & ",
"& @ = d / ..R v j N J B B B B B B B B B B J N j v R ../ d = @ & ",
"& @ = d / ..Q D G ) ..| | | | | | | | | | ..) G D Q ../ d = @ & ",
"& @ = d / ..Q S S Q { ' ' ' ' ' ' ' ' ' ' { Q S S Q ../ d = @ & ",
"& @ = d / ..Q F G ) ..| | | | | | | | | | ..) G F Q ../ d = @ & ",
"& @ = d / ..W C V T ( / / / / / / / / / / ( T V C W ../ d = @ & ",
"& @ = d / o.Y g q y f d d d d d d d d d d f y q g Y o./ d = @ & ",
"& @ = d / @.P 9 # * = = = = = = = = = = = = * # 9 P @./ d = @ & ",
"& @ = d / @.L 7 o + @ @ @ @ @ @ @ @ @ @ @ @ + o 7 L @./ d = @ & ",
"& @ = d / @.P 8 + % & & & & & & & & & & & & % + 8 P @./ d = @ & "
};
