/* XPM */
static char *Picsart_23_02_27_14_57_01_828_resized[] = {
/* columns rows colors chars-per-pixel */
"32 32 146 2 ",
"   c None",
".  c #140A09",
"X  c #1A0E0D",
"o  c #1D110F",
"O  c #1D1412",
"+  c #260F0C",
"@  c #290E0C",
"#  c #23110E",
"$  c #28110D",
"%  c #241411",
"&  c #2F1714",
"*  c #241915",
"=  c #251D19",
"-  c #2B1C19",
";  c #351E17",
":  c #3A1D16",
">  c #331E1A",
",  c #2E241D",
"<  c #332016",
"1  c #34241C",
"2  c #3A221B",
"3  c #3F2B1E",
"4  c #2F2721",
"5  c #302720",
"6  c #352A22",
"7  c #392D25",
"8  c #3D322A",
"9  c #491F16",
"0  c #4B1E18",
"q  c #42241B",
"w  c #4B251D",
"e  c #402B1F",
"r  c #482B1F",
"t  c #502B1F",
"y  c #432D21",
"u  c #492C22",
"i  c #522E22",
"p  c #5A2D23",
"a  c #433023",
"s  c #4B3324",
"d  c #43342A",
"f  c #4C3529",
"g  c #45382E",
"h  c #4B392D",
"j  c #543626",
"k  c #5B3125",
"l  c #543924",
"z  c #5D3629",
"x  c #523A2B",
"c  c #5C3B2C",
"v  c #473C31",
"b  c #4A3D32",
"n  c #533F31",
"m  c #5B3D32",
"M  c #672E21",
"N  c #603427",
"B  c #6D3925",
"V  c #6C3A29",
"C  c #723C2C",
"Z  c #633D32",
"A  c #4C4035",
"S  c #4E4339",
"D  c #544235",
"F  c #5C4234",
"G  c #51453A",
"H  c #5E4538",
"J  c #55493C",
"K  c #5A4B3E",
"L  c #614535",
"P  c #6E4333",
"I  c #644835",
"U  c #6C4A36",
"Y  c #67483B",
"T  c #6C4E3B",
"R  c #734130",
"E  c #754E3B",
"W  c #7A4D3B",
"Q  c #725039",
"!  c #7A523E",
"~  c #574C41",
"^  c #5C4F41",
"/  c #5F5347",
"(  c #664D40",
")  c #714F40",
"_  c #605447",
"`  c #6B5241",
"'  c #755443",
"]  c #795745",
"[  c #725946",
"{  c #7E5C44",
"}  c #7E5D4D",
"|  c #845340",
" . c #8B5D45",
".. c #815A4C",
"X. c #905D47",
"o. c #915E4B",
"O. c #84614A",
"+. c #8D644D",
"@. c #95634D",
"#. c #9E674F",
"$. c #856351",
"%. c #8C6651",
"&. c #836856",
"*. c #8C6954",
"=. c #8C6C58",
"-. c #936552",
";. c #946B55",
":. c #9B6C54",
">. c #926E5A",
",. c #9C6E59",
"<. c #9B725E",
"1. c #A06C54",
"2. c #A3735A",
"3. c #AB765D",
"4. c #9A7662",
"5. c #9A7865",
"6. c #9B7D6B",
"7. c #A67563",
"8. c #AA7565",
"9. c #A27A64",
"0. c #A37D68",
"q. c #A97E6A",
"w. c #B27D6A",
"e. c #AA816A",
"r. c #B3856D",
"t. c #A68471",
"y. c #AE8671",
"u. c #AC8975",
"i. c #B18370",
"p. c #B98771",
"a. c #B38974",
"s. c #BA8A73",
"d. c #B78D78",
"f. c #B98E78",
"g. c #BE927C",
"h. c #C2937C",
"j. c #BE9880",
"k. c #C09681",
"l. c #C49A83",
"z. c #C99C83",
"x. c #CC9E8A",
"c. c #CCA18A",
"v. c #D0A48C",
"b. c #CFA792",
"n. c #D4A592",
"m. c #D1A892",
/* pixels */
"                                                                ",
"                                                                ",
"                                                                ",
"                        / K S S ~ K G G                         ",
"                    G v 8 8 v 7 8 8 8 d g J                     ",
"                  _ b g 8 , 4 5 = , , 1 6 7 A                   ",
"                  A 6 1 , 7 7 , = * = , , 1 6 S                 ",
"                K g y e e 7 h f x F L F h a 6 A                 ",
"                b ` 9.e.2.;.*.*.9.a.f.r.<.O.H g K               ",
"                n u.v.c.c.x.k.k.c.m.c.h.h.d.=.h A               ",
"              ^ ` j.z.h.h.z.k.g.g.h.s.p.s.f.<.h d               ",
"              K [ h.z.z.z.h.g.h.g.s.s.s.s.d.9.D 7 J             ",
"                &.c.x.c.n.m.l.g.g.l.k.d.y.y.e.F 7 b             ",
"                &.u.5.5.5.y.f.g.g.q.&.Y H ' <.T 6 A             ",
"              u j r - = , u Y ....m 1 * 2 r P E 6               ",
"              2 : ; * O O O > c : % O X - > q r F               ",
"                p u & X . X u ,.y . . O - 2 q c }               ",
"                B V 0 @ @ % ' x.Z @ % % : u i ) $.              ",
"                C C M 0 w u a.n.-.9 w t z V P >.                ",
"                a.-.C p p o.c.x.i.) i p C W <.t.                ",
"                u.p.3.#.1.r.w.3.7.7. .@.:.7.0.6.                ",
"                  9.2.2.r.@.| W P -.2.:.2.9.5.                  ",
"                  O.Q Q { U l r y H ' Q Q *.4.                  ",
"                  >.U l s r e < 2 3 y s I =.5.                  ",
"                    *.Q c j z z s s l T &.>.                    ",
"                    *.:.#.@.! !  .+.+.$.*.                      ",
"                      ;.2.2.:.+.:.:.;.$.                        ",
"                        +.:.<.<.>.+...                          ",
"                          ! ' ' ]                               ",
"                                                                ",
"                                                                ",
"                                                                "
};
