/* XPM */
static char *tile_0009_resized[] = {
/* columns rows colors chars-per-pixel */
"32 32 108 2 ",
"   c None",
".  c #6C3A41",
"X  c #6C3A42",
"o  c #6C3B43",
"O  c #6E3C42",
"+  c #6E3D43",
"@  c #6F3E43",
"#  c #6C3B44",
"$  c #703F43",
"%  c #714042",
"&  c #714043",
"*  c #714044",
"=  c #714144",
"-  c #8C583A",
";  c #AD752E",
":  c #AE762E",
">  c #AE772E",
",  c #AE762F",
"<  c #B0782E",
"1  c #AB7331",
"2  c #AD7530",
"3  c #AE7B3D",
"4  c #8E6250",
"5  c #C67B66",
"6  c #C77C64",
"7  c #C87D63",
"8  c #C97E62",
"9  c #EEAD1B",
"0  c #E9AA1F",
"q  c #EFAF1C",
"w  c #EEAF1D",
"e  c #EFAF1D",
"r  c #EDAD1F",
"t  c #F2B01B",
"y  c #F4B318",
"u  c #F5B518",
"i  c #F5B519",
"p  c #F5B619",
"a  c #F6B618",
"s  c #F4B41A",
"d  c #F5B51A",
"f  c #F4B41B",
"g  c #F7B71A",
"h  c #F3B31C",
"j  c #F3B31D",
"k  c #F0B01E",
"l  c #F4B31C",
"z  c #F8B71A",
"x  c #F9B918",
"c  c #F8B819",
"v  c #DE993F",
"b  c #E19C3B",
"n  c #E39D3B",
"m  c #E09B3C",
"M  c #EBAB22",
"N  c #ECAB22",
"B  c #ECAC20",
"V  c #ECAD20",
"C  c #ECAC21",
"Z  c #EEAD23",
"A  c #EFAE23",
"S  c #ECA925",
"D  c #EDAB26",
"F  c #EEAC25",
"G  c #EDAC26",
"H  c #E8A42B",
"J  c #E8A52B",
"K  c #ECA92D",
"L  c #F1AE22",
"P  c #F1B020",
"I  c #F4B320",
"U  c #E6A332",
"Y  c #E6A137",
"T  c #EDA931",
"R  c #F1BC37",
"E  c #F7C136",
"W  c #F7C137",
"Q  c #F8C235",
"!  c #FBC635",
"~  c #AF885F",
"^  c #B18858",
"/  c #B28B60",
"(  c #B48E61",
")  c #B48E62",
"_  c #D68E4C",
"`  c #D58D4E",
"'  c #D48C4F",
"]  c #DB9443",
"[  c #DE9744",
"{  c #DE9745",
"}  c #DF9843",
"|  c #D7904A",
" . c #CB815E",
".. c #CA805F",
"X. c #CC835C",
"o. c #D08755",
"O. c #D18853",
"+. c #E09A40",
"@. c #F7D66F",
"#. c #FDDD70",
"$. c #FCDC71",
"%. c #F3D77C",
"&. c #F8DD7F",
"*. c #FFE172",
"=. c #FCE280",
"-. c #FCE484",
";. c #FFEB86",
":. c #FFF088",
/* pixels */
"    @ @ @ @ @ @ @ @ @ @ @ @ @ @ @ @ @ @ @ @ @ @ @ @ @ @ @ @     ",
"  @ @ O X . X X X X X X X X X X X X X X X X X X X X . X O @ @   ",
"@ @ @ $ * = = = = = = = = = = = = = = = = = = = = = = * $ @ @ @ ",
"@ O $ 4 ~ ( / / / / / / / / / / / / / / / / / / / / ( ~ 4 $ O @ ",
"@ X * ~ %.=.&.&.&.&.&.&.&.&.&.&.&.&.&.&.&.&.&.&.&.&.=.%.~ * X @ ",
"@ . = ) -.:.;.;.;.;.;.;.;.;.;.;.;.;.;.;.;.;.;.;.;.;.:.-.) = . @ ",
"@ X * ^ @.*.#.#.#.$.$.$.$.$.$.$.$.$.$.$.$.$.$.#.#.#.*.@.^ * X @ ",
"@ o & 3 R ! Q Q Q E W W W W W W W W W W W W E Q Q Q ! R 3 & o @ ",
"@ # % ; 9 L J H S t y y y y y y y y y y y y t S H J L 9 ; % # @ ",
"@ # % : B n O.o.] Z u s s s s s s s s s s u Z ] o.O.n B : % # @ ",
"@ # % > M { 7 5 ' D a f f f f f f f f f f a D ' 5 7 { M > % # @ ",
"@ # % > C +.X. .| F p f f f f f f f f f f p F |  .X.+.C > % # @ ",
"@ # % , r K b m U P d f f f f f f f f f f d P U m b K r , % # @ ",
"@ # % 2 e g h h l f f f f f f f f f f f f f f l h h g e 2 % # @ ",
"@ # % 2 q c i i d f f f f f f f f f f f f f f d i i c q 2 % # @ ",
"@ # % 2 e z f f f f f f f f f f f f f f f f f f f f z e 2 % # @ ",
"@ # % 2 e z f f f f f f f f f f f f f f f f f f f f z e 2 % # @ ",
"@ # % 2 e z f f f f f f f f f f f f f f f f f f f f z e 2 % # @ ",
"@ # % 2 e z f f f f f f f f f f f f f f f f f f f f z e 2 % # @ ",
"@ # % 2 e z f f f f f f f f f f f f f f f f f f f f z e 2 % # @ ",
"@ # % 2 e z f f f f f f f f f f f f f f f f f f f f z e 2 % # @ ",
"@ # % 2 q x p a i f f f f f f f f f f f f f f i a p x q 2 % # @ ",
"@ # % 2 w I G G A j f f f f f f f f f f f f j A G G I w 2 % # @ ",
"@ # % , V Y _ ` v A i f f f f f f f f f f i A v ` _ Y V , % # @ ",
"@ # % > M [ 8 6 ` G a f f f f f f f f f f a G ` 6 8 [ M > % # @ ",
"@ # % > N } ..8 _ G p f f f f f f f f f f p G _ 8 ..} N > % # @ ",
"@ # % < k T } [ Y I x z z z z z z z z z z x I Y [ } T k < % # @ ",
"@ # % 1 0 k N M V w q e e e e e e e e e e q w V M N k 0 1 % # @ ",
"@ + $ - 1 < > > , 2 2 2 2 2 2 2 2 2 2 2 2 2 2 , > > < 1 - $ + @ ",
"@ @ @ $ % % % % % % % % % % % % % % % % % % % % % % % % $ @ @ @ ",
"  @ @ + # # # # # # # # # # # # # # # # # # # # # # # # + @ @   ",
"    @ @ @ @ @ @ @ @ @ @ @ @ @ @ @ @ @ @ @ @ @ @ @ @ @ @ @ @     "
};
